# xmcd CD database file
#
# Track frame offsets:
#	182
#	15557
#	36032
#	48407
#	68732
#	97982
#	114407
#	138107
#	162782
#	178007
#	183707
#	186032
#	207107
#	220532
#	242057
#	249782
#	264182
#	270107
#	279407
#	282182
#	287207
#	301607
#	309632
#	312407
#	314657
#	322007
#
# Disc length: 4457 seconds
#
# Revision: 1
# Processed by: cddbd v1.4PL0 Copyright (c) Steve Scherf et al.
# Submitted via: CDex 1.40Beta9
#
DISCID=6611671a
DTITLE=Ludwig van Beethoven - Klavierwerke CD2
DYEAR=1900
DGENRE=Classical
TTITLE0=Kurfürsten-Sonate Nr.01 in Es-Dur (1) Allegro cantabile
TTITLE1=Kurfürsten-Sonate Nr.01 in Es-Dur (2)  Andante
TTITLE2=Kurfürsten-Sonate Nr.01 in Es-Dur (2) Rondo vivace
TTITLE3=Kurfürsten-Sonate Nr.02 in (1) Larghetto maestoso - Allegro assai
TTITLE4=Kurfürsten-Sonate Nr.02 in (2) Andante
TTITLE5=Kurfürsten-Sonate Nr.02 in (3) Presto
TTITLE6=Kurfürsten-Sonate Nr.03 in (1) Allegro
TTITLE7=Kurfürsten-Sonate Nr.03 in (2) Menuetto
TTITLE8=Kurfürsten-Sonate Nr.03 in (3) Scherzando. Alegro, ma non troppo
TTITLE9=Sonate F-Dur, WoO 50 (1)
TTITLE10=Sonate F-Dur, WoO 50 (2) Allegretto
TTITLE11=Sonate in C-Dur, WoO 51 (1) Allegro
TTITLE12=Sonate in C-Dur, WoO 51 (2) Adagio
TTITLE13=Allegretto in c-moll, WoO 53
TTITLE14=Stück in C-Dur c-moll, WoO 54 (Lustig-Traurig)
TTITLE15=Prseludium in f-moll, WoO 55
TTITLE16=Stück in B-Dur, WoO 60
TTITLE17=Allegretto h-moll, WoO 61
TTITLE18=Allegretto quasi Andante in g-moll, WoO 61a
TTITLE19=Allemande in A-Dur, WoO 81
TTITLE20=Menuett in Es-Dur, WoO 82
TTITLE21=Walzer in Es-Dur, WoO 84
TTITLE22=Walzer in D-Dur, WoO 85
TTITLE23=Ecossaise in Es-Dur, WoO 86
TTITLE24=Fuge in C-Dur, Hess 64
TTITLE25=Allegretto in c-moll, Hess 69
EXTD=ID3G: 32
EXTT0=
EXTT1=
EXTT2=
EXTT3=
EXTT4=
EXTT5=
EXTT6=
EXTT7=
EXTT8=
EXTT9=
EXTT10=
EXTT11=
EXTT12=
EXTT13=
EXTT14=
EXTT15=
EXTT16=
EXTT17=
EXTT18=
EXTT19=
EXTT20=
EXTT21=
EXTT22=
EXTT23=
EXTT24=
EXTT25=
PLAYORDER=
